<?xml version="1.0" encoding="UTF-8" standalone="no"?>
<!-- Created with Inkscape (http://www.inkscape.org/) -->

<svg
   xmlns:dc="http://purl.org/dc/elements/1.1/"
   xmlns:cc="http://creativecommons.org/ns#"
   xmlns:rdf="http://www.w3.org/1999/02/22-rdf-syntax-ns#"
   xmlns:svg="http://www.w3.org/2000/svg"
   xmlns="http://www.w3.org/2000/svg"
   xmlns:sodipodi="http://sodipodi.sourceforge.net/DTD/sodipodi-0.dtd"
   xmlns:inkscape="http://www.inkscape.org/namespaces/inkscape"
   width="678.32965mm"
   height="314.29944mm"
   viewBox="0 0 678.32965 314.29944"
   version="1.1"
   id="svg8"
   inkscape:version="0.92.2 5c3e80d, 2017-08-06"
   sodipodi:docname="app_icon.svg">
  <defs
     id="defs2">
    <inkscape:path-effect
       effect="spiro"
       id="path-effect914"
       is_visible="true" />
  </defs>
  <sodipodi:namedview
     id="base"
     pagecolor="#ffffff"
     bordercolor="#666666"
     borderopacity="1.0"
     inkscape:pageopacity="0.0"
     inkscape:pageshadow="2"
     inkscape:zoom="0.15492909"
     inkscape:cx="-2307.5406"
     inkscape:cy="866.76295"
     inkscape:document-units="mm"
     inkscape:current-layer="flowRoot857"
     showgrid="false"
     showguides="false"
     inkscape:snap-global="true"
     inkscape:snap-bbox="true"
     inkscape:bbox-paths="true"
     inkscape:bbox-nodes="true"
     inkscape:snap-bbox-edge-midpoints="true"
     inkscape:snap-bbox-midpoints="true"
     inkscape:window-width="1440"
     inkscape:window-height="851"
     inkscape:window-x="0"
     inkscape:window-y="0"
     inkscape:window-maximized="1"
     fit-margin-top="0"
     fit-margin-left="0"
     fit-margin-right="0"
     fit-margin-bottom="0" />
  <metadata
     id="metadata5">
    <rdf:RDF>
      <cc:Work
         rdf:about="">
        <dc:format>image/svg+xml</dc:format>
        <dc:type
           rdf:resource="http://purl.org/dc/dcmitype/StillImage" />
        <dc:title></dc:title>
      </cc:Work>
    </rdf:RDF>
  </metadata>
  <g
     inkscape:label="レイヤー 1"
     inkscape:groupmode="layer"
     id="layer1"
     transform="translate(583.48281,399.35318)">
    <g
       aria-label="A"
       transform="matrix(2.3451683,0,0,2.3451683,-408.37982,-176.6576)"
       style="font-style:normal;font-weight:normal;font-size:40px;line-height:125%;font-family:sans-serif;letter-spacing:0px;word-spacing:0px;fill:#000000;fill-opacity:1;stroke:#f60000;stroke-width:1.59690034;stroke-linecap:butt;stroke-linejoin:miter;stroke-miterlimit:4;stroke-dasharray:none;stroke-opacity:1"
       id="flowRoot857">
      <flowRoot
         xml:space="preserve"
         id="flowRoot872"
         style="font-style:normal;font-weight:normal;font-size:40px;line-height:125%;font-family:sans-serif;letter-spacing:0px;word-spacing:0px;fill:#000000;fill-opacity:1;stroke:none;stroke-width:1px;stroke-linecap:butt;stroke-linejoin:miter;stroke-opacity:1"
         transform="matrix(0.11282062,0,0,0.11282062,174.13668,75.328325)"><flowRegion
           id="flowRegion874"><rect
             id="rect876"
             width="226.27417"
             height="131.31982"
             x="212.13203"
             y="90.143784" /></flowRegion><flowPara
           id="flowPara878"></flowPara></flowRoot>      <path
         style="opacity:1;fill:#17278b;fill-opacity:1;fill-rule:nonzero;stroke:none;stroke-width:1.94151282;stroke-linecap:round;stroke-linejoin:bevel;stroke-miterlimit:4;stroke-dasharray:none;stroke-dashoffset:0;stroke-opacity:1"
         d="m -493.3324,-247.1548 v 10.72148 10.72171 10.72148 h 21.42556 21.42556 v 10.59897 h -0.0524 v 10.72148 h -21.42578 -21.42557 v 10.72171 h 21.42557 21.42578 21.42556 v -10.72171 -10.59875 h 0.0524 v -10.7217 -10.72148 h -0.0524 v -10.72171 -10.72148 h -21.42556 v 10.72148 10.72171 h -21.37312 v -10.72171 -10.72148 z"
         id="rect928"
         inkscape:connector-curvature="0" />
      <path
         style="opacity:1;fill:#17278b;fill-opacity:1;fill-rule:nonzero;stroke:none;stroke-width:1.94151282;stroke-linecap:round;stroke-linejoin:bevel;stroke-miterlimit:4;stroke-dasharray:none;stroke-dashoffset:0;stroke-opacity:1"
         d="m -418.39527,-247.1548 v 10.72148 10.72171 10.72148 10.7217 10.72149 10.7217 h 21.42556 21.42556 21.42557 v -10.7217 -10.72149 -10.7217 -10.72148 -10.72171 -10.72148 h -21.42557 -21.42556 z m 21.42556,10.72148 h 21.42556 v 10.72171 10.72148 10.7217 10.72149 h -21.42556 v -10.72149 -10.7217 -10.72148 z"
         id="rect948"
         inkscape:connector-curvature="0" />
      <path
         style="opacity:1;fill:#17278b;fill-opacity:1;fill-rule:nonzero;stroke:none;stroke-width:1.94151282;stroke-linecap:round;stroke-linejoin:bevel;stroke-miterlimit:4;stroke-dasharray:none;stroke-dashoffset:0;stroke-opacity:1"
         d="m -343.4057,-247.1548 v 10.72148 h 21.42556 v 10.72171 10.72148 10.7217 10.72149 10.7217 h 21.42556 v -10.7217 -10.72149 -10.7217 -10.72148 -10.72171 h 21.42557 v -10.72148 h -21.42557 -21.42556 z"
         id="rect1005"
         inkscape:connector-curvature="0" />
      <path
         style="opacity:1;fill:#2b9b3b;fill-opacity:1;fill-rule:nonzero;stroke:none;stroke-width:1.94151282;stroke-linecap:round;stroke-linejoin:bevel;stroke-miterlimit:4;stroke-dasharray:none;stroke-dashoffset:0;stroke-opacity:1"
         d="m -493.38507,-177.58718 v 10.72149 10.7217 10.72149 h 21.42556 21.42557 v 10.7217 10.72149 h -21.42557 -21.42556 v 10.7217 h 21.42556 21.42557 21.42556 v -10.7217 -10.72149 -10.7217 -10.72149 h -21.42556 -21.42557 v -10.7217 h 21.42557 21.42556 v -10.72149 h -21.42556 -21.42557 z"
         id="rect1027"
         inkscape:connector-curvature="0" />
      <path
         style="opacity:1;fill:#17278b;fill-opacity:1;fill-rule:nonzero;stroke:none;stroke-width:1.94151282;stroke-linecap:round;stroke-linejoin:bevel;stroke-miterlimit:4;stroke-dasharray:none;stroke-dashoffset:0;stroke-opacity:1"
         d="m -268.41613,-247.1548 v 10.72148 10.72171 10.72148 10.7217 10.72149 10.7217 h 21.42555 21.42557 21.42556 v -10.7217 h -21.42556 -21.42557 v -10.72149 -10.7217 h 21.42557 21.42556 v -10.72148 h -21.42556 -21.42557 v -10.72171 h 21.42557 21.42556 v -10.72148 h -21.42556 -21.42557 z"
         id="rect1052"
         inkscape:connector-curvature="0" />
      <path
         style="opacity:1;fill:#2b9b3b;fill-opacity:1;fill-rule:nonzero;stroke:none;stroke-width:1.94151282;stroke-linecap:round;stroke-linejoin:bevel;stroke-miterlimit:4;stroke-dasharray:none;stroke-dashoffset:0;stroke-opacity:1"
         d="m -418.39524,-177.46437 v 10.72148 h 21.42556 21.42556 21.42556 v -10.72148 h -21.42556 -21.42556 z m 0,10.7217 v 10.72149 10.72148 10.7217 10.72149 10.7217 h 21.42556 v -10.7217 -10.72149 -10.7217 h 21.42556 v 10.7217 10.72149 10.7217 h 21.42556 v -10.7217 -10.72149 -10.7217 -10.72148 -10.72149 h -21.42556 v 10.72149 h -21.42556 v -10.72149 z"
         id="path1175"
         inkscape:connector-curvature="0" />
      <path
         style="opacity:1;fill:#2b9b3b;fill-opacity:1;fill-rule:nonzero;stroke:none;stroke-width:1.94151282;stroke-linecap:round;stroke-linejoin:bevel;stroke-miterlimit:4;stroke-dasharray:none;stroke-dashoffset:0;stroke-opacity:1"
         d="m -343.40575,-177.46455 v 10.72149 h 21.42556 v -10.72149 z m 42.85113,0 v 10.72149 h 21.42578 v -10.72149 z m -42.85113,10.72171 v 10.72148 10.72149 10.7217 10.72149 10.7217 h 21.42556 v -10.7217 -10.72149 -10.7217 h 21.42557 v -10.72149 h 21.42578 v -10.72148 h -21.42578 -21.42557 z m 42.85113,21.44297 v 10.7217 10.72149 10.7217 h 21.42578 v -10.7217 -10.72149 -10.7217 z"
         id="rect1108"
         inkscape:connector-curvature="0" />
      <rect
         y="51.4258"
         x="-124.58253"
         height="10.721582"
         width="21.425608"
         id="rect1110"
         style="opacity:0.656;fill:#f68300;fill-opacity:1;fill-rule:nonzero;stroke:none;stroke-width:1.94151282;stroke-linecap:round;stroke-linejoin:bevel;stroke-miterlimit:4;stroke-dasharray:none;stroke-dashoffset:0;stroke-opacity:1" />
      <path
         style="opacity:1;fill:#2b9b3b;fill-opacity:1;fill-rule:nonzero;stroke:none;stroke-width:1.94151282;stroke-linecap:round;stroke-linejoin:bevel;stroke-miterlimit:4;stroke-dasharray:none;stroke-dashoffset:0;stroke-opacity:1"
         d="m -268.41612,-177.46444 v 10.72149 10.7217 10.72148 10.7217 10.72149 10.72148 h 21.42555 21.42556 21.42556 v -10.72148 -10.72149 -10.7217 -10.72148 -10.7217 -10.72149 h -21.42556 v 10.72149 10.7217 10.72148 10.7217 10.72149 h -21.42556 v -10.72149 -10.7217 -10.72148 -10.7217 -10.72149 z"
         id="rect1138"
         inkscape:connector-curvature="0" />
      <path
         inkscape:connector-curvature="0"
         id="path1190"
         d="m -493.3324,-247.1548 v 10.72148 10.72171 10.72148 h 21.42556 21.42556 v 10.59897 h -0.0524 v 10.72148 h -21.42578 -21.42557 v 10.72171 h 21.42557 21.42578 21.42556 v -10.72171 -10.59875 h 0.0524 v -10.7217 -10.72148 h -0.0524 v -10.72171 -10.72148 h -21.42556 v 10.72148 10.72171 h -21.37312 v -10.72171 -10.72148 z"
         style="opacity:1;fill:#17278b;fill-opacity:1;fill-rule:nonzero;stroke:none;stroke-width:1.94151282;stroke-linecap:round;stroke-linejoin:bevel;stroke-miterlimit:4;stroke-dasharray:none;stroke-dashoffset:0;stroke-opacity:1" />
      <path
         inkscape:connector-curvature="0"
         id="path1192"
         d="m -418.39527,-247.1548 v 10.72148 10.72171 10.72148 10.7217 10.72149 10.7217 h 21.42556 21.42556 21.42557 v -10.7217 -10.72149 -10.7217 -10.72148 -10.72171 -10.72148 h -21.42557 -21.42556 z m 21.42556,10.72148 h 21.42556 v 10.72171 10.72148 10.7217 10.72149 h -21.42556 v -10.72149 -10.7217 -10.72148 z"
         style="opacity:1;fill:#17278b;fill-opacity:1;fill-rule:nonzero;stroke:none;stroke-width:1.94151282;stroke-linecap:round;stroke-linejoin:bevel;stroke-miterlimit:4;stroke-dasharray:none;stroke-dashoffset:0;stroke-opacity:1" />
      <path
         inkscape:connector-curvature="0"
         id="path1194"
         d="m -343.4057,-247.1548 v 10.72148 h 21.42556 v 10.72171 10.72148 10.7217 10.72149 10.7217 h 21.42556 v -10.7217 -10.72149 -10.7217 -10.72148 -10.72171 h 21.42557 v -10.72148 h -21.42557 -21.42556 z"
         style="opacity:1;fill:#17278b;fill-opacity:1;fill-rule:nonzero;stroke:none;stroke-width:1.94151282;stroke-linecap:round;stroke-linejoin:bevel;stroke-miterlimit:4;stroke-dasharray:none;stroke-dashoffset:0;stroke-opacity:1" />
      <path
         inkscape:connector-curvature="0"
         id="path1196"
         d="m -493.38507,-177.58718 v 10.72149 10.7217 10.72149 h 21.42556 21.42557 v 10.7217 10.72149 h -21.42557 -21.42556 v 10.7217 h 21.42556 21.42557 21.42556 v -10.7217 -10.72149 -10.7217 -10.72149 h -21.42556 -21.42557 v -10.7217 h 21.42557 21.42556 v -10.72149 h -21.42556 -21.42557 z"
         style="opacity:1;fill:#2b9b3b;fill-opacity:1;fill-rule:nonzero;stroke:none;stroke-width:1.94151282;stroke-linecap:round;stroke-linejoin:bevel;stroke-miterlimit:4;stroke-dasharray:none;stroke-dashoffset:0;stroke-opacity:1" />
      <path
         inkscape:connector-curvature="0"
         id="path1198"
         d="m -268.41613,-247.1548 v 10.72148 10.72171 10.72148 10.7217 10.72149 10.7217 h 21.42555 21.42557 21.42556 v -10.7217 h -21.42556 -21.42557 v -10.72149 -10.7217 h 21.42557 21.42556 v -10.72148 h -21.42556 -21.42557 v -10.72171 h 21.42557 21.42556 v -10.72148 h -21.42556 -21.42557 z"
         style="opacity:1;fill:#17278b;fill-opacity:1;fill-rule:nonzero;stroke:none;stroke-width:1.94151282;stroke-linecap:round;stroke-linejoin:bevel;stroke-miterlimit:4;stroke-dasharray:none;stroke-dashoffset:0;stroke-opacity:1" />
      <path
         id="path1200"
         d="m -418.39524,-177.46437 v 10.72148 h 21.42556 21.42556 21.42556 v -10.72148 h -21.42556 -21.42556 z m 0,10.7217 v 10.72149 10.72148 10.7217 10.72149 10.7217 h 21.42556 v -10.7217 -10.72149 -10.7217 h 21.42556 v 10.7217 10.72149 10.7217 h 21.42556 v -10.7217 -10.72149 -10.7217 -10.72148 -10.72149 h -21.42556 v 10.72149 h -21.42556 v -10.72149 z"
         style="opacity:1;fill:#2b9b3b;fill-opacity:1;fill-rule:nonzero;stroke:none;stroke-width:1.94151282;stroke-linecap:round;stroke-linejoin:bevel;stroke-miterlimit:4;stroke-dasharray:none;stroke-dashoffset:0;stroke-opacity:1"
         inkscape:connector-curvature="0" />
      <path
         inkscape:connector-curvature="0"
         id="path1202"
         d="m -343.40575,-177.46455 v 10.72149 h 21.42556 v -10.72149 z m 42.85113,0 v 10.72149 h 21.42578 v -10.72149 z m -42.85113,10.72171 v 10.72148 10.72149 10.7217 10.72149 10.7217 h 21.42556 v -10.7217 -10.72149 -10.7217 h 21.42557 v -10.72149 h 21.42578 v -10.72148 h -21.42578 -21.42557 z m 42.85113,21.44297 v 10.7217 10.72149 10.7217 h 21.42578 v -10.7217 -10.72149 -10.7217 z"
         style="opacity:1;fill:#2b9b3b;fill-opacity:1;fill-rule:nonzero;stroke:none;stroke-width:1.94151282;stroke-linecap:round;stroke-linejoin:bevel;stroke-miterlimit:4;stroke-dasharray:none;stroke-dashoffset:0;stroke-opacity:1" />
      <path
         inkscape:connector-curvature="0"
         id="path1204"
         d="m -268.41612,-177.46444 v 10.72149 10.7217 10.72148 10.7217 10.72149 10.72148 h 21.42555 21.42556 21.42556 v -10.72148 -10.72149 -10.7217 -10.72148 -10.7217 -10.72149 h -21.42556 v 10.72149 10.7217 10.72148 10.7217 10.72149 h -21.42556 v -10.72149 -10.7217 -10.72148 -10.7217 -10.72149 z"
         style="opacity:1;fill:#2b9b3b;fill-opacity:1;fill-rule:nonzero;stroke:none;stroke-width:1.94151282;stroke-linecap:round;stroke-linejoin:bevel;stroke-miterlimit:4;stroke-dasharray:none;stroke-dashoffset:0;stroke-opacity:1" />
      <path
         id="path1259"
         transform="matrix(0.11282062,0,0,0.11282062,-74.665426,-94.959317)"
         style="opacity:1;fill:#17278b;fill-opacity:1;fill-rule:nonzero;stroke:none;stroke-width:17.20884705;stroke-linecap:round;stroke-linejoin:bevel;stroke-miterlimit:4;stroke-dasharray:none;stroke-dashoffset:0;stroke-opacity:1"
         d="m 549.99023,2636.4609 v 95.0332 95.0313 0.5449 h -0.46484 v -95.0332 -95.0312 h -189.9082 v 95.0312 95.0332 H 170.17383 v -95.0332 -95.0312 H -19.734375 v 95.0312 95.0332 95.0313 h 189.908205 189.9082 v 93.9453 h -0.46484 v 95.0312 H 169.70703 -20.201172 v 95.0332 h 189.908202 189.91016 189.9082 v -95.0332 -93.9433 h 0.46484 v 94.4863 95.0351 h 189.90821 189.9082 189.90816 v -95.0351 -95.0293 -95.0332 -95.0332 -94.4883 h 189.4454 v 95.0332 95.0313 95.0332 95.0312 95.0332 h 189.9082 v -95.0332 -95.0312 -95.0332 -95.0313 -95.0332 h 189.9082 v 95.0332 95.0313 95.0332 95.0312 95.0332 h 189.9082 189.9082 189.9082 V 3112.166 H 2068.793 1878.8848 v -95.0312 -95.0332 h 189.9082 189.9082 v -95.0313 H 2068.793 1878.8848 v -95.0332 h 189.9082 189.9082 v -95.0312 H 2068.793 1878.8848 1688.9766 1499.0684 1309.1602 1119.7148 v -0.545 H 929.80664 739.89844 Z m 189.90821,95.0332 h 189.9082 v 95.0313 95.0332 95.0332 95.0293 h -189.9082 v -95.0293 -95.0332 -95.0332 z" />
      <path
         style="opacity:1;fill:#2b9b3b;fill-opacity:1;fill-rule:nonzero;stroke:none;stroke-width:1.94151282;stroke-linecap:round;stroke-linejoin:bevel;stroke-miterlimit:4;stroke-dasharray:none;stroke-dashoffset:0;stroke-opacity:1"
         d="m 51.661492,266.81762 v 2.2e-4 h -21.42556 -21.42557 -21.42556 v 10.72149 10.7217 10.72148 h 21.42556 21.42557 v 10.72171 10.72149 h -21.42557 -21.42556 v 10.7217 h 21.42556 21.42557 21.42556 v -2.3e-4 h 21.42556 V 320.42548 309.704 298.9823 h 21.42556 v 10.7217 10.72148 10.7217 h 21.425558 21.42557 V 320.42548 309.704 298.9823 h 21.42556 v -10.72149 h 21.42577 V 298.9823 H 158.7893 v 10.7217 10.72148 10.7217 h 21.42577 v -2.1e-4 h 21.42556 21.42556 21.42556 V 320.42548 309.704 298.9823 288.26081 277.5391 266.81762 h -21.42556 v 10.72148 10.72171 10.72149 10.7217 10.72148 H 201.64063 V 309.704 298.9823 288.26081 277.5391 266.81762 H 180.21507 158.7893 v 10.72148 h 21.42577 v 2.3e-4 H 158.7893 137.36374 115.93817 94.512612 v 10.72148 h -21.42556 v -10.72148 h -21.42556 v 10.72148 2.2e-4 H 30.235932 8.810362 v -10.7217 h 21.42557 21.42556 v -2.3e-4 h 21.42556 21.42556 21.425558 21.42557 V 266.81762 H 115.93817 94.512612 73.087052 Z"
         id="path1281"
         inkscape:connector-curvature="0" />
      <path
         inkscape:connector-curvature="0"
         id="path1294"
         d="m -459.83483,-42.52833 v 10.72148 10.72171 10.72148 h 21.42556 21.42556 V 0.23531011 h -0.0524 V 10.95679 h -21.42578 -21.42557 V 21.6785 h 21.42557 21.42578 21.42556 V 10.95679 0.35804011 h 0.0524 V -10.36366 -21.08514 h -0.0524 v -10.72171 -10.72148 h -21.42556 v 10.72148 10.72171 h -21.37312 v -10.72171 -10.72148 z"
         style="opacity:1;fill:#17278b;fill-opacity:1;fill-rule:nonzero;stroke:none;stroke-width:1.94151282;stroke-linecap:round;stroke-linejoin:bevel;stroke-miterlimit:4;stroke-dasharray:none;stroke-dashoffset:0;stroke-opacity:1" />
      <path
         style="opacity:1;fill:#2b9b3b;fill-opacity:1;fill-rule:nonzero;stroke:none;stroke-width:1.94151282;stroke-linecap:round;stroke-linejoin:bevel;stroke-miterlimit:4;stroke-dasharray:none;stroke-dashoffset:0;stroke-opacity:1"
         d="m -380.26578,-41.861492 v 10.72149 10.7217 10.7214901 h 21.42556 21.42557 v 10.7217 10.7214899 h -21.42557 -21.42556 v 10.7217 h 21.42556 21.42557 21.42556 v -10.7217 -10.7214899 -10.7217 -10.7214901 h -21.42556 -21.42557 v -10.7217 h 21.42557 21.42556 v -10.72149 h -21.42556 -21.42557 z"
         id="path1300"
         inkscape:connector-curvature="0" />
    </g>
  </g>
</svg>
