<?xml version="1.0" encoding="UTF-8" standalone="no"?>
<!-- Created with Inkscape (http://www.inkscape.org/) -->

<svg
   xmlns:dc="http://purl.org/dc/elements/1.1/"
   xmlns:cc="http://creativecommons.org/ns#"
   xmlns:rdf="http://www.w3.org/1999/02/22-rdf-syntax-ns#"
   xmlns:svg="http://www.w3.org/2000/svg"
   xmlns="http://www.w3.org/2000/svg"
   xmlns:sodipodi="http://sodipodi.sourceforge.net/DTD/sodipodi-0.dtd"
   xmlns:inkscape="http://www.inkscape.org/namespaces/inkscape"
   width="259.09488mm"
   height="271.38928mm"
   viewBox="0 0 259.09488 271.38928"
   version="1.1"
   id="svg8"
   inkscape:version="0.92.2 5c3e80d, 2017-08-06"
   sodipodi:docname="face.svg">
  <defs
     id="defs2">
    <inkscape:path-effect
       effect="spiro"
       id="path-effect852"
       is_visible="true" />
  </defs>
  <sodipodi:namedview
     id="base"
     pagecolor="#ffffff"
     bordercolor="#666666"
     borderopacity="1.0"
     inkscape:pageopacity="0.0"
     inkscape:pageshadow="2"
     inkscape:zoom="0.49497475"
     inkscape:cx="325.33416"
     inkscape:cy="378.67005"
     inkscape:document-units="mm"
     inkscape:current-layer="layer1"
     showgrid="false"
     inkscape:showpageshadow="false"
     showborder="false"
     fit-margin-top="0"
     fit-margin-left="0"
     fit-margin-right="0"
     fit-margin-bottom="0"
     inkscape:window-width="1440"
     inkscape:window-height="851"
     inkscape:window-x="0"
     inkscape:window-y="0"
     inkscape:window-maximized="1" />
  <metadata
     id="metadata5">
    <rdf:RDF>
      <cc:Work
         rdf:about="">
        <dc:format>image/svg+xml</dc:format>
        <dc:type
           rdf:resource="http://purl.org/dc/dcmitype/StillImage" />
        <dc:title></dc:title>
      </cc:Work>
    </rdf:RDF>
  </metadata>
  <g
     inkscape:label="レイヤー 1"
     inkscape:groupmode="layer"
     id="layer1"
     transform="translate(12.003443,21.774263)">
    <ellipse
       style="opacity:1;fill:#f1f1f7;fill-opacity:1;fill-rule:nonzero;stroke:#393939;stroke-width:4.65428543;stroke-linecap:round;stroke-linejoin:bevel;stroke-miterlimit:4;stroke-dasharray:none;stroke-dashoffset:0;stroke-opacity:1"
       id="path1108"
       cx="117.54399"
       cy="-113.92037"
       rx="127.22029"
       ry="133.36749"
       transform="scale(1,-1)" />
    <ellipse
       ry="45.109589"
       rx="43.030392"
       cy="134.29181"
       cx="117.54399"
       id="ellipse1110"
       style="opacity:1;fill:#5f5c56;fill-opacity:1;fill-rule:nonzero;stroke:none;stroke-width:1.57424355;stroke-linecap:round;stroke-linejoin:bevel;stroke-miterlimit:4;stroke-dasharray:none;stroke-dashoffset:0;stroke-opacity:1" />
    <ellipse
       style="opacity:1;fill:#838484;fill-opacity:1;fill-rule:nonzero;stroke:none;stroke-width:0.73334324;stroke-linecap:round;stroke-linejoin:bevel;stroke-miterlimit:4;stroke-dasharray:none;stroke-dashoffset:0;stroke-opacity:1"
       id="ellipse1119"
       cx="117.54399"
       cy="139.14421"
       rx="20.045212"
       ry="21.013783" />
    <g
       id="g1104"
       transform="translate(2.9036909,7.9375004)">
      <path
         inkscape:connector-curvature="0"
         id="ellipse821"
         d="M 54.290852,18.172105 A 50.648811,50.270833 0 0 0 3.6422651,68.442937 50.648811,50.270833 0 0 0 54.290852,118.71377 50.648811,50.270833 0 0 0 104.93992,68.442937 50.648811,50.270833 0 0 0 54.290852,18.172105 Z m 0,17.008781 A 33.261905,33.2619 0 0 1 87.552903,68.442937 33.261905,33.2619 0 0 1 54.290852,101.70499 33.261905,33.2619 0 0 1 21.029317,68.442937 33.261905,33.2619 0 0 1 54.290852,35.180886 Z"
         style="opacity:1;fill:#393939;fill-opacity:1;fill-rule:nonzero;stroke:none;stroke-width:1.82534051;stroke-linecap:round;stroke-linejoin:bevel;stroke-miterlimit:4;stroke-dasharray:none;stroke-dashoffset:0;stroke-opacity:1" />
      <path
         style="opacity:1;fill:#393939;fill-opacity:1;fill-rule:nonzero;stroke:none;stroke-width:1.82534051;stroke-linecap:round;stroke-linejoin:bevel;stroke-miterlimit:4;stroke-dasharray:none;stroke-dashoffset:0;stroke-opacity:1"
         d="m 174.98923,18.172105 a 50.648811,50.270833 0 0 0 -50.64859,50.270832 50.648811,50.270833 0 0 0 50.64859,50.270833 50.648811,50.270833 0 0 0 50.6491,-50.270833 50.648811,50.270833 0 0 0 -50.6491,-50.270832 z m 0,17.008781 A 33.261905,33.2619 0 0 1 208.25128,68.442937 33.261905,33.2619 0 0 1 174.98923,101.70499 33.261905,33.2619 0 0 1 141.7277,68.442937 33.261905,33.2619 0 0 1 174.98923,35.180886 Z"
         id="path1043"
         inkscape:connector-curvature="0" />
      <rect
         y="61.7612"
         x="99.226868"
         height="13.363476"
         width="30.201456"
         id="rect1045"
         style="opacity:1;fill:#393939;fill-opacity:1;fill-rule:nonzero;stroke:none;stroke-width:4.65428543;stroke-linecap:round;stroke-linejoin:bevel;stroke-miterlimit:4;stroke-dasharray:none;stroke-dashoffset:0;stroke-opacity:1" />
    </g>
    <path
       style="opacity:1;fill:#dd8888;fill-opacity:1;fill-rule:nonzero;stroke:none;stroke-width:4.65428543;stroke-linecap:round;stroke-linejoin:bevel;stroke-miterlimit:4;stroke-dasharray:none;stroke-dashoffset:0;stroke-opacity:1"
       d="m 30.426567,180.4707 c 23.579335,23.31512 51.5514,44.33407 83.964713,44.36626 32.37562,-0.0613 66.71822,-21.07819 90.27013,-44.36626 0,0 -59.50402,14.04269 -89.79012,13.89801 -28.526592,-0.13627 -55.821747,-7.09907 -84.444723,-13.89801 z"
       id="ellipse1112"
       inkscape:connector-curvature="0"
       sodipodi:nodetypes="cccac" />
  </g>
</svg>
