<?xml version="1.0" encoding="UTF-8" standalone="no"?>
<!-- Created with Inkscape (http://www.inkscape.org/) -->

<svg
   xmlns:dc="http://purl.org/dc/elements/1.1/"
   xmlns:cc="http://creativecommons.org/ns#"
   xmlns:rdf="http://www.w3.org/1999/02/22-rdf-syntax-ns#"
   xmlns:svg="http://www.w3.org/2000/svg"
   xmlns="http://www.w3.org/2000/svg"
   xmlns:sodipodi="http://sodipodi.sourceforge.net/DTD/sodipodi-0.dtd"
   xmlns:inkscape="http://www.inkscape.org/namespaces/inkscape"
   width="131.89891mm"
   height="131.96402mm"
   viewBox="0 0 131.89891 131.96402"
   version="1.1"
   id="svg8"
   inkscape:version="0.92.2 5c3e80d, 2017-08-06"
   sodipodi:docname="icon2.svg">
  <defs
     id="defs2">
    <inkscape:path-effect
       effect="spiro"
       id="path-effect852"
       is_visible="true" />
  </defs>
  <sodipodi:namedview
     id="base"
     pagecolor="#ffffff"
     bordercolor="#666666"
     borderopacity="1.0"
     inkscape:pageopacity="0.0"
     inkscape:pageshadow="2"
     inkscape:zoom="0.98994949"
     inkscape:cx="259.51647"
     inkscape:cy="248.94713"
     inkscape:document-units="mm"
     inkscape:current-layer="layer1"
     showgrid="false"
     inkscape:showpageshadow="false"
     showborder="false"
     fit-margin-top="0"
     fit-margin-left="0"
     fit-margin-right="0"
     fit-margin-bottom="0"
     inkscape:window-width="1440"
     inkscape:window-height="851"
     inkscape:window-x="0"
     inkscape:window-y="0"
     inkscape:window-maximized="1" />
  <metadata
     id="metadata5">
    <rdf:RDF>
      <cc:Work
         rdf:about="">
        <dc:format>image/svg+xml</dc:format>
        <dc:type
           rdf:resource="http://purl.org/dc/dcmitype/StillImage" />
        <dc:title></dc:title>
      </cc:Work>
    </rdf:RDF>
  </metadata>
  <g
     inkscape:label="レイヤー 1"
     inkscape:groupmode="layer"
     id="layer1"
     transform="translate(-9.9058138,-119.52409)"
     style="opacity:0.98000004">
    <g
       id="g844">
      <path
         inkscape:connector-curvature="0"
         transform="matrix(0.26458333,0,0,0.26458333,-12.003443,-21.774263)"
         id="path1266"
         d="m 518.45703,947.87695 a 250.00001,250.00001 0 0 0 3.98047,-4.23437 250.00001,250.00001 0 0 0 3.32422,-4.03125 250.00001,250.00001 0 0 1 -7.30469,8.26562 z"
         style="opacity:0.48600003;fill:#0c7cac;fill-opacity:1;fill-rule:nonzero;stroke:none;stroke-width:22.92708397;stroke-linecap:round;stroke-linejoin:bevel;stroke-miterlimit:4;stroke-dasharray:none;stroke-dashoffset:0;stroke-opacity:1" />
      <path
         inkscape:connector-curvature="0"
         transform="matrix(0.26458333,0,0,0.26458333,-12.003443,-21.774263)"
         id="path1264"
         d="m 502.97461,963.88867 a 250.00001,250.00001 0 0 0 2.34375,-2.04101 250.00001,250.00001 0 0 0 1.14062,-1.21485 250.00001,250.00001 0 0 1 -3.48437,3.25586 z"
         style="opacity:0.48600003;fill:#0c7cac;fill-opacity:1;fill-rule:nonzero;stroke:none;stroke-width:22.92708397;stroke-linecap:round;stroke-linejoin:bevel;stroke-miterlimit:4;stroke-dasharray:none;stroke-dashoffset:0;stroke-opacity:1" />
      <path
         id="path1269"
         d="m 82.206825,224.63963 a 39.6875,39.6875 0 0 0 0.197922,-0.0238 39.6875,39.6875 0 0 0 3.870566,-0.86868 39.6875,39.6875 0 0 0 3.764626,-1.25108 39.6875,39.6875 0 0 0 3.621485,-1.62058 39.6875,39.6875 0 0 0 3.441133,-1.97352 39.6875,39.6875 0 0 0 3.226673,-2.30787 39.6875,39.6875 0 0 0 2.98018,-2.61793 39.6875,39.6875 0 0 0 2.70423,-2.90266 39.6875,39.6875 0 0 0 2.40089,-3.15847 39.6875,39.6875 0 0 0 2.07377,-3.38222 39.6875,39.6875 0 0 0 1.72548,-3.57187 39.6875,39.6875 0 0 0 1.36012,-3.72639 39.6875,39.6875 0 0 0 0.98134,-3.84421 39.6875,39.6875 0 0 0 0.59324,-3.92224 39.6875,39.6875 0 0 0 0.19793,-3.96203 39.6875,39.6875 0 0 0 -0.0992,-2.80758 39.6875,39.6875 0 0 0 -0.47801,-3.93827 39.6875,39.6875 0 0 0 -0.86868,-3.87056 39.6875,39.6875 0 0 0 -1.25109,-3.76463 39.6875,39.6875 0 0 0 -1.62057,-3.62148 39.6875,39.6875 0 0 0 -1.97404,-3.44114 39.6875,39.6875 0 0 0 -2.30735,-3.22667 39.6875,39.6875 0 0 0 -2.61845,-2.98018 39.6875,39.6875 0 0 0 -2.90266,-2.70423 39.6875,39.6875 0 0 0 -3.15795,-2.40089 39.6875,39.6875 0 0 0 -3.382222,-2.07377 39.6875,39.6875 0 0 0 -3.571875,-1.72548 39.6875,39.6875 0 0 0 -3.726905,-1.36012 39.6875,39.6875 0 0 0 -3.843692,-0.98185 39.6875,39.6875 0 0 0 -1.336871,-0.20206 z"
         style="opacity:0.48600003;fill:#f8f3ac;fill-opacity:1;fill-rule:nonzero;stroke:none;stroke-width:6.06612444;stroke-linecap:round;stroke-linejoin:bevel;stroke-miterlimit:4;stroke-dasharray:none;stroke-dashoffset:0;stroke-opacity:1"
         inkscape:connector-curvature="0" />
      <path
         id="path1204"
         d="m 82.206825,119.52409 v 26.88311 a 39.6875,39.6875 0 0 1 1.336871,0.20206 39.6875,39.6875 0 0 1 3.843692,0.98185 39.6875,39.6875 0 0 1 3.726905,1.36012 39.6875,39.6875 0 0 1 3.571875,1.72548 39.6875,39.6875 0 0 1 3.382222,2.07377 39.6875,39.6875 0 0 1 3.15795,2.40089 39.6875,39.6875 0 0 1 2.90266,2.70423 39.6875,39.6875 0 0 1 2.61845,2.98018 39.6875,39.6875 0 0 1 2.30735,3.22667 39.6875,39.6875 0 0 1 1.97404,3.44114 39.6875,39.6875 0 0 1 1.62057,3.62148 39.6875,39.6875 0 0 1 1.25109,3.76463 39.6875,39.6875 0 0 1 0.86868,3.87056 39.6875,39.6875 0 0 1 0.47801,3.93827 39.6875,39.6875 0 0 1 0.0992,2.80758 39.6875,39.6875 0 0 1 -0.19793,3.96203 39.6875,39.6875 0 0 1 -0.59324,3.92224 39.6875,39.6875 0 0 1 -0.98134,3.84421 39.6875,39.6875 0 0 1 -1.36012,3.72638 39.6875,39.6875 0 0 1 -1.72548,3.57188 39.6875,39.6875 0 0 1 -2.07377,3.38222 39.6875,39.6875 0 0 1 -2.40089,3.15847 39.6875,39.6875 0 0 1 -2.70423,2.90266 39.6875,39.6875 0 0 1 -2.98018,2.61793 39.6875,39.6875 0 0 1 -3.226673,2.30787 39.6875,39.6875 0 0 1 -3.441133,1.97352 39.6875,39.6875 0 0 1 -3.621485,1.62057 39.6875,39.6875 0 0 1 -3.764626,1.25109 39.6875,39.6875 0 0 1 -3.870566,0.86868 39.6875,39.6875 0 0 1 -0.197922,0.0238 v 1.72496 h 45.252015 a 66.145835,66.145835 0 0 0 14.3459,-41.02229 66.145835,66.145835 0 0 0 -59.597915,-65.8182 z"
         style="opacity:0.48600003;fill:#ff2307;fill-opacity:1;fill-rule:nonzero;stroke:none;stroke-width:6.06612444;stroke-linecap:round;stroke-linejoin:bevel;stroke-miterlimit:4;stroke-dasharray:none;stroke-dashoffset:0;stroke-opacity:1"
         inkscape:connector-curvature="0" />
      <path
         id="path1262"
         d="M 36.505222,191.89021 H 9.9058138 a 66.145835,66.145835 0 0 0 65.7530922,59.5979 66.145835,66.145835 0 0 0 45.416344,-18.2335 66.145835,66.145835 0 0 1 -4.36717,3.8008 H 82.206825 69.110469 v -12.45092 a 39.6875,39.6875 0 0 1 -1.335836,-0.20205 39.6875,39.6875 0 0 1 -3.844211,-0.98185 39.6875,39.6875 0 0 1 -3.726386,-1.36013 39.6875,39.6875 0 0 1 -3.572394,-1.72547 39.6875,39.6875 0 0 1 -3.381705,-2.07378 39.6875,39.6875 0 0 1 -3.158464,-2.40089 39.6875,39.6875 0 0 1 -2.902664,-2.70371 39.6875,39.6875 0 0 1 -2.617928,-2.98069 39.6875,39.6875 0 0 1 -2.30787,-3.22668 39.6875,39.6875 0 0 1 -1.973522,-3.44113 39.6875,39.6875 0 0 1 -1.620573,-3.62097 39.6875,39.6875 0 0 1 -1.251087,-3.76463 39.6875,39.6875 0 0 1 -0.86868,-3.87108 39.6875,39.6875 0 0 1 -0.04393,-0.36122 z"
         style="opacity:0.48600003;fill:#ff2307;fill-opacity:1;fill-rule:nonzero;stroke:none;stroke-width:6.06612444;stroke-linecap:round;stroke-linejoin:bevel;stroke-miterlimit:4;stroke-dasharray:none;stroke-dashoffset:0;stroke-opacity:1"
         inkscape:connector-curvature="0" />
      <path
         id="path1202"
         d="m 36.505222,191.89021 a 39.6875,39.6875 0 0 0 0.04393,0.36122 39.6875,39.6875 0 0 0 0.86868,3.87108 39.6875,39.6875 0 0 0 1.251087,3.76463 39.6875,39.6875 0 0 0 1.620573,3.62097 39.6875,39.6875 0 0 0 1.973522,3.44113 39.6875,39.6875 0 0 0 2.30787,3.22668 39.6875,39.6875 0 0 0 2.617928,2.98069 39.6875,39.6875 0 0 0 2.902664,2.70371 39.6875,39.6875 0 0 0 3.158464,2.40089 39.6875,39.6875 0 0 0 3.381705,2.07378 39.6875,39.6875 0 0 0 3.572394,1.72547 39.6875,39.6875 0 0 0 3.726386,1.36013 39.6875,39.6875 0 0 0 3.844211,0.98185 39.6875,39.6875 0 0 0 1.335836,0.20205 v -32.71428 z"
         style="opacity:0.48600003;fill:#f8f3ac;fill-opacity:1;fill-rule:nonzero;stroke:none;stroke-width:6.06612444;stroke-linecap:round;stroke-linejoin:bevel;stroke-miterlimit:4;stroke-dasharray:none;stroke-dashoffset:0;stroke-opacity:1"
         inkscape:connector-curvature="0" />
      <path
         id="path1259"
         d="m 69.110469,146.37206 a 39.6875,39.6875 0 0 0 -0.19689,0.0238 39.6875,39.6875 0 0 0 -3.871079,0.86868 39.6875,39.6875 0 0 0 -3.764629,1.25108 39.6875,39.6875 0 0 0 -3.620968,1.62058 39.6875,39.6875 0 0 0 -3.441134,1.97404 39.6875,39.6875 0 0 0 -3.226676,2.30735 39.6875,39.6875 0 0 0 -2.980695,2.61845 39.6875,39.6875 0 0 0 -2.703711,2.90266 39.6875,39.6875 0 0 0 -2.400887,3.15795 39.6875,39.6875 0 0 0 -2.073775,3.38222 39.6875,39.6875 0 0 0 -1.725478,3.57187 39.6875,39.6875 0 0 0 -1.360122,3.72691 39.6875,39.6875 0 0 0 -0.981853,3.84369 39.6875,39.6875 0 0 0 -0.17725,1.17306 h 32.525147 z"
         style="opacity:0.48600003;fill:#f8f3ac;fill-opacity:1;fill-rule:nonzero;stroke:none;stroke-width:6.06612444;stroke-linecap:round;stroke-linejoin:bevel;stroke-miterlimit:4;stroke-dasharray:none;stroke-dashoffset:0;stroke-opacity:1"
         inkscape:connector-curvature="0" />
      <path
         id="path1200"
         d="M 69.110469,119.5892 A 66.145835,66.145835 0 0 0 9.9130483,178.79437 H 36.585322 a 39.6875,39.6875 0 0 1 0.17725,-1.17306 39.6875,39.6875 0 0 1 0.981853,-3.84369 39.6875,39.6875 0 0 1 1.360122,-3.7269 39.6875,39.6875 0 0 1 1.725478,-3.57188 39.6875,39.6875 0 0 1 2.073775,-3.38222 39.6875,39.6875 0 0 1 2.400887,-3.15795 39.6875,39.6875 0 0 1 2.703711,-2.90266 39.6875,39.6875 0 0 1 2.980695,-2.61844 39.6875,39.6875 0 0 1 3.226676,-2.30736 39.6875,39.6875 0 0 1 3.441134,-1.97404 39.6875,39.6875 0 0 1 3.620968,-1.62057 39.6875,39.6875 0 0 1 3.764629,-1.25109 39.6875,39.6875 0 0 1 3.871079,-0.86868 39.6875,39.6875 0 0 1 0.19689,-0.0238 z"
         style="opacity:0.48600003;fill:#ff2307;fill-opacity:1;fill-rule:nonzero;stroke:none;stroke-width:6.06612444;stroke-linecap:round;stroke-linejoin:bevel;stroke-miterlimit:4;stroke-dasharray:none;stroke-dashoffset:0;stroke-opacity:1"
         inkscape:connector-curvature="0" />
    </g>
  </g>
</svg>
