<?xml version="1.0" encoding="UTF-8" standalone="no"?>
<!-- Created with Inkscape (http://www.inkscape.org/) -->

<svg
   xmlns:dc="http://purl.org/dc/elements/1.1/"
   xmlns:cc="http://creativecommons.org/ns#"
   xmlns:rdf="http://www.w3.org/1999/02/22-rdf-syntax-ns#"
   xmlns:svg="http://www.w3.org/2000/svg"
   xmlns="http://www.w3.org/2000/svg"
   xmlns:xlink="http://www.w3.org/1999/xlink"
   xmlns:sodipodi="http://sodipodi.sourceforge.net/DTD/sodipodi-0.dtd"
   xmlns:inkscape="http://www.inkscape.org/namespaces/inkscape"
   width="189.30934mm"
   height="187.13071mm"
   viewBox="0 0 189.30934 187.13071"
   version="1.1"
   id="svg8"
   inkscape:version="0.92.2 5c3e80d, 2017-08-06"
   sodipodi:docname="setting.svg">
  <defs
     id="defs2">
    <linearGradient
       inkscape:collect="always"
       id="linearGradient863">
      <stop
         style="stop-color:#dde2dd;stop-opacity:1;"
         offset="0"
         id="stop859" />
      <stop
         style="stop-color:#dde2dd;stop-opacity:0;"
         offset="1"
         id="stop861" />
    </linearGradient>
    <linearGradient
       inkscape:collect="always"
       xlink:href="#linearGradient863"
       id="linearGradient865"
       x1="-905.29144"
       y1="527.62695"
       x2="-167.77885"
       y2="527.62695"
       gradientUnits="userSpaceOnUse"
       gradientTransform="matrix(0.26458333,0,0,0.26458333,-413.00008,-63.25011)" />
    <linearGradient
       inkscape:collect="always"
       xlink:href="#linearGradient863"
       id="linearGradient873"
       gradientUnits="userSpaceOnUse"
       gradientTransform="matrix(0.26372445,-0.02130148,0.02130148,0.26372445,-300.89721,59.257141)"
       x1="-905.29144"
       y1="527.62695"
       x2="-167.77885"
       y2="527.62695" />
    <linearGradient
       inkscape:collect="always"
       xlink:href="#linearGradient863"
       id="linearGradient877"
       gradientUnits="userSpaceOnUse"
       gradientTransform="matrix(0.31133882,-0.02514737,0.02514737,0.31133882,-193.55802,-145.25885)"
       x1="-905.29144"
       y1="527.62695"
       x2="-167.77885"
       y2="527.62695" />
  </defs>
  <sodipodi:namedview
     id="base"
     pagecolor="#ffffff"
     bordercolor="#666666"
     borderopacity="1.0"
     inkscape:pageopacity="0.0"
     inkscape:pageshadow="2"
     inkscape:zoom="0.35"
     inkscape:cx="580.9444"
     inkscape:cy="125.39801"
     inkscape:document-units="mm"
     inkscape:current-layer="layer1"
     showgrid="false"
     fit-margin-top="0"
     fit-margin-left="0"
     fit-margin-right="0"
     fit-margin-bottom="0"
     inkscape:window-width="1440"
     inkscape:window-height="851"
     inkscape:window-x="0"
     inkscape:window-y="0"
     inkscape:window-maximized="1" />
  <metadata
     id="metadata5">
    <rdf:RDF>
      <cc:Work
         rdf:about="">
        <dc:format>image/svg+xml</dc:format>
        <dc:type
           rdf:resource="http://purl.org/dc/dcmitype/StillImage" />
        <dc:title></dc:title>
      </cc:Work>
    </rdf:RDF>
  </metadata>
  <g
     inkscape:label="レイヤー 1"
     inkscape:groupmode="layer"
     id="layer1"
     transform="translate(205.86892,-297.26181)">
    <path
       style="opacity:1;fill:url(#linearGradient865);fill-opacity:1;fill-rule:nonzero;stroke:#000000;stroke-width:5.82423496;stroke-linecap:round;stroke-linejoin:bevel;stroke-miterlimit:4;stroke-dasharray:none;stroke-dashoffset:0;stroke-opacity:1"
       d="m -568.67426,-17.21438 a 94.654758,94.654758 0 0 0 -22.52886,6.214091 l 0.26252,21.636406 a 75,75 0 0 0 -10.38851,6.786665 l -19.79466,-8.7384833 a 94.654758,94.654758 0 0 0 -14.47767,18.3327303 l 12.91497,17.330208 a 75,75 0 0 0 -4.36458,11.572936 l -21.11862,4.558895 a 94.654758,94.654758 0 0 0 -1.4433,15.871899 94.654758,94.654758 0 0 0 0.3302,7.462078 l 20.67522,6.441982 a 75,75 0 0 0 3.3073,11.951733 l -14.43686,16.13648 a 94.654758,94.654758 0 0 0 12.93101,19.46186 l 20.48298,-6.93084 a 75,75 0 0 0 9.65212,7.76645 l -2.19005,21.49119 a 94.654758,94.654758 0 0 0 21.89686,8.16953 l 12.48657,-17.632 a 75,75 0 0 0 9.51932,0.68161 75,75 0 0 0 2.85925,-0.10128 l 10.85619,18.66656 a 94.654758,94.654758 0 0 0 22.52886,-6.21409 l -0.26252,-21.63641 a 75,75 0 0 0 10.38903,-6.78666 l 19.79466,8.73796 a 94.654758,94.654758 0 0 0 14.47767,-18.33273 l -12.91498,-17.32969 a 75,75 0 0 0 4.3646,-11.572943 l 21.1186,-4.55889 a 94.654758,94.654758 0 0 0 1.44332,-15.8719 94.654758,94.654758 0 0 0 -0.33021,-7.462592 l -20.67574,-6.441985 a 75,75 0 0 0 -3.30729,-11.951726 L -470.1795,34.358182 A 94.654758,94.654758 0 0 0 -483.11101,14.89684 l -20.48247,6.930842 a 75,75 0 0 0 -9.65264,-7.766452 l 2.19005,-21.4911941 a 94.654758,94.654758 0 0 0 -21.89685,-8.1695269 L -545.4395,2.0325067 a 75,75 0 0 0 -9.5188,-0.681612 75,75 0 0 0 -2.85977,0.101286 z m 13.71596,43.620076 a 49.945438,49.945438 0 0 1 49.94527,49.945271 49.945438,49.945438 0 0 1 -49.94527,49.945793 49.945438,49.945438 0 0 1 -49.94527,-49.945793 49.945438,49.945438 0 0 1 49.94527,-49.945271 z"
       id="circle821"
       inkscape:connector-curvature="0" />
    <path
       id="path871"
       d="m -452.35974,117.67668 a 94.654758,94.654758 0 0 0 -21.95542,8.00771 l 2.0036,21.54504 a 75,75 0 0 0 -9.80839,7.601 l -20.43394,-7.11645 a 94.654758,94.654758 0 0 0 -12.95471,19.43881 l 14.26829,16.23417 a 75,75 0 0 0 -3.41869,11.88676 l -20.68302,6.24435 a 94.654758,94.654758 0 0 0 -0.16079,15.93657 94.654758,94.654758 0 0 0 0.9299,7.41128 l 21.12676,4.75651 a 75,75 0 0 0 4.25878,11.64667 l -13.09085,17.2464 a 94.654758,94.654758 0 0 0 14.4559,18.35761 l 19.85849,-8.55741 a 75,75 0 0 0 10.24606,6.96415 l -0.4527,21.59774 a 94.654758,94.654758 0 0 0 22.4835,6.38011 l 11.0265,-18.58005 a 75,75 0 0 0 9.54329,-0.087 75,75 0 0 0 2.84182,-0.33115 l 12.32378,17.73194 a 94.654758,94.654758 0 0 0 21.95543,-8.00771 l -2.0036,-21.54504 a 75,75 0 0 0 9.80892,-7.60104 l 20.43389,7.11594 a 94.654758,94.654758 0 0 0 12.95471,-19.43881 l -14.26826,-16.23366 a 75,75 0 0 0 3.4187,-11.88676 l 20.68302,-6.24434 a 94.654758,94.654758 0 0 0 0.1608,-15.93658 94.654758,94.654758 0 0 0 -0.92995,-7.41178 l -21.12727,-4.75649 a 75,75 0 0 0 -4.25878,-11.64665 l 13.09135,-17.24645 a 94.654758,94.654758 0 0 0 -14.45636,-18.35706 l -19.85798,8.55737 a 75,75 0 0 0 -10.24658,-6.96411 l 0.45269,-21.59774 a 94.654758,94.654758 0 0 0 -22.48349,-6.38011 l -11.0265,18.58006 a 75,75 0 0 0 -9.54278,0.087 75,75 0 0 0 -2.84234,0.33119 z m 17.18327,42.37422 a 49.945438,49.945438 0 0 1 53.80421,45.76207 49.945438,49.945438 0 0 1 -45.76203,53.80473 49.945438,49.945438 0 0 1 -53.80424,-45.76259 49.945438,49.945438 0 0 1 45.76206,-53.80421 z"
       style="opacity:1;fill:url(#linearGradient873);fill-opacity:1;fill-rule:nonzero;stroke:#000000;stroke-width:5.82423496;stroke-linecap:round;stroke-linejoin:bevel;stroke-miterlimit:4;stroke-dasharray:none;stroke-dashoffset:0;stroke-opacity:1"
       inkscape:connector-curvature="0" />
    <path
       inkscape:connector-curvature="0"
       style="opacity:1;fill:url(#linearGradient877);fill-opacity:1;fill-rule:nonzero;stroke:#000000;stroke-width:6.87577677;stroke-linecap:round;stroke-linejoin:bevel;stroke-miterlimit:4;stroke-dasharray:none;stroke-dashoffset:0;stroke-opacity:1"
       d="m -372.36648,-76.291902 a 111.74429,111.74429 0 0 0 -25.91939,9.453469 l 2.36534,25.434908 a 88.540942,88.540942 0 0 0 -11.57925,8.973329 l -24.12321,-8.401296 a 111.74429,111.74429 0 0 0 -15.29363,22.948408 l 16.84437,19.1651817 a 88.540942,88.540942 0 0 0 -4.03592,14.0328663 l -24.41725,7.371742 a 111.74429,111.74429 0 0 0 -0.18982,18.813852 111.74429,111.74429 0 0 0 1.09779,8.749356 l 24.94111,5.615278 a 88.540942,88.540942 0 0 0 5.02768,13.749429 L -443.103,89.974787 a 111.74429,111.74429 0 0 0 17.06585,21.672003 l 23.44386,-10.10242 a 88.540942,88.540942 0 0 0 12.09594,8.2215 l -0.53443,25.49713 a 111.74429,111.74429 0 0 0 26.5428,7.53201 l 13.01729,-21.9346 a 88.540942,88.540942 0 0 0 11.2663,-0.10271 88.540942,88.540942 0 0 0 3.3549,-0.39094 l 14.54878,20.93337 a 111.74429,111.74429 0 0 0 25.9194,-9.45347 l -2.36535,-25.43491 a 88.540942,88.540942 0 0 0 11.57988,-8.973373 l 24.12314,8.400693 a 111.74429,111.74429 0 0 0 15.29363,-22.948409 l -16.84433,-19.16458 a 88.540942,88.540942 0 0 0 4.03593,-14.032865 l 24.41725,-7.37173 a 111.74429,111.74429 0 0 0 0.18983,-18.813864 111.74429,111.74429 0 0 0 -1.09785,-8.749946 l -24.9417,-5.6152553 a 88.540942,88.540942 0 0 0 -5.02769,-13.7494047 l 15.45494,-20.360226 a 111.74429,111.74429 0 0 0 -17.06639,-21.671351 l -23.44326,10.102368 a 88.540942,88.540942 0 0 0 -12.09655,-8.221452 l 0.53442,-25.497123 a 111.74429,111.74429 0 0 0 -26.5428,-7.532012 l -13.01729,21.934613 a 88.540942,88.540942 0 0 0 -11.26569,0.102708 88.540942,88.540942 0 0 0 -3.35551,0.390985 z m 20.28563,50.02471 a 58.962881,58.962881 0 0 1 63.51834,54.024224 58.962881,58.962881 0 0 1 -54.02417,63.518955 58.962881,58.962881 0 0 1 -63.51838,-54.024839 58.962881,58.962881 0 0 1 54.02421,-63.51834 z"
       id="path875" />
    <path
       inkscape:connector-curvature="0"
       id="path879"
       d="m -124.93021,297.26181 a 94.654758,94.654758 0 0 0 -22.52886,6.21409 l 0.26252,21.63641 a 75,75 0 0 0 -10.38851,6.78666 l -19.79466,-8.73848 a 94.654758,94.654758 0 0 0 -14.47767,18.33273 l 12.91497,17.33021 a 75,75 0 0 0 -4.36458,11.57293 l -21.11862,4.5589 a 94.654758,94.654758 0 0 0 -1.4433,15.8719 94.654758,94.654758 0 0 0 0.3302,7.46208 l 20.67522,6.44198 a 75,75 0 0 0 3.3073,11.95173 l -14.43686,16.13648 a 94.654758,94.654758 0 0 0 12.93101,19.46186 l 20.48298,-6.93084 a 75,75 0 0 0 9.65212,7.76645 l -2.19005,21.49119 a 94.654758,94.654758 0 0 0 21.89686,8.16953 l 12.48657,-17.632 a 75,75 0 0 0 9.51932,0.68161 75,75 0 0 0 2.85925,-0.10128 l 10.856187,18.66656 a 94.654758,94.654758 0 0 0 22.52886,-6.21409 l -0.26252,-21.63641 a 75,75 0 0 0 10.38903,-6.78666 l 19.79466,8.73796 a 94.654758,94.654758 0 0 0 14.47767,-18.33273 l -12.91498,-17.32969 a 75,75 0 0 0 4.3646,-11.57294 l 21.1186,-4.55889 a 94.654758,94.654758 0 0 0 1.44332,-15.8719 94.654758,94.654758 0 0 0 -0.33021,-7.46259 l -20.67574,-6.44199 a 75,75 0 0 0 -3.30729,-11.95172 l 14.43736,-16.13649 a 94.654758,94.654758 0 0 0 -12.93151,-19.46134 l -20.48247,6.93084 a 75,75 0 0 0 -9.65264,-7.76645 l 2.19005,-21.49119 a 94.654758,94.654758 0 0 0 -21.89685,-8.16953 l -12.486577,17.632 a 75,75 0 0 0 -9.5188,-0.68161 75,75 0 0 0 -2.85977,0.10128 z m 13.71596,43.62008 a 49.945438,49.945438 0 0 1 49.945267,49.94527 49.945438,49.945438 0 0 1 -49.945267,49.94579 49.945438,49.945438 0 0 1 -49.94527,-49.94579 49.945438,49.945438 0 0 1 49.94527,-49.94527 z"
       style="opacity:1;fill:#484848;fill-opacity:1;fill-rule:nonzero;stroke:none;stroke-width:5.82423496;stroke-linecap:round;stroke-linejoin:bevel;stroke-miterlimit:4;stroke-dasharray:none;stroke-dashoffset:0;stroke-opacity:1" />
  </g>
</svg>
